<svg width="20" height="20" viewBox="0 0 20 20" fill="none" xmlns="http://www.w3.org/2000/svg">
<path d="M10.5001 9.00001C10.4167 9.00001 10.4167 8.91668 10.3334 8.91668V6.33334C11.3334 6.41668 12.1667 6.83334 12.1667 6.83334L12.9167 5.33334C12.8334 5.33334 11.6667 4.66668 10.3334 4.66668V3.33334H9.50008V4.66668C8.83341 4.83334 8.33341 5.08334 7.83341 5.41668C7.33341 5.91668 7.00008 6.58334 7.00008 7.33334C7.00008 7.91668 7.16675 9.25001 9.50008 10.3333V13.5833C8.75008 13.4167 7.83341 13 7.50008 12.8333L6.66675 14.25C6.83341 14.3333 8.16675 15.0833 9.50008 15.25V16.6667H10.3334V15.25C12.2501 15 13.3334 13.5 13.3334 12.0833C13.3334 10.8333 12.5001 9.83334 10.5001 9.00001ZM9.50008 8.50001C8.83341 8.08334 8.66675 7.66668 8.66675 7.41668C8.66675 7.08334 8.75008 6.83334 9.00008 6.66668C9.16675 6.58334 9.33341 6.50001 9.50008 6.41668V8.50001ZM10.3334 13.5833V10.75C11.2501 11.1667 11.6667 11.6667 11.6667 12.0833C11.6667 12.5833 11.4167 13.4167 10.3334 13.5833Z" fill="#979797"/>
</svg>
