<svg width="16" height="16" viewBox="0 0 16 16" fill="none" xmlns="http://www.w3.org/2000/svg">
<path d="M8 3.59369C4.75942 3.59369 0.839242 5.81846 0.0580622 8.24085C0.0151804 8.37382 0.00886095 8.51568 0.0501118 8.64917C0.594516 10.4109 4.21363 13.1795 8 13.1795C10.9789 13.1795 15.0402 11.1882 15.9343 8.65216C15.982 8.51661 15.9916 8.37012 15.9551 8.23109C15.3973 6.101 11.5236 3.59369 8 3.59369ZM8 11.9999C6.15879 11.9999 4.22714 10.2856 4.22714 8.44438C4.22714 6.60317 5.77519 4.79572 8 4.79572C10.2248 4.79572 11.7531 6.60317 11.7531 8.44438C11.7531 10.2856 10.203 11.9999 8 11.9999Z" fill="#A3A7AB"/>
<path d="M8.00008 10.8776C9.34484 10.8776 10.435 9.78746 10.435 8.44271C10.435 7.09795 9.34484 6.00781 8.00008 6.00781C6.65533 6.00781 5.56519 7.09795 5.56519 8.44271C5.56519 9.78746 6.65533 10.8776 8.00008 10.8776Z" fill="#A3A7AB"/>
</svg>
