<svg width="50" height="50" viewBox="0 0 50 50" fill="none" xmlns="http://www.w3.org/2000/svg">
<g clip-path="url(#clip0_1_5223)">
<path d="M25.051 48.47L34.4605 45.7558C40.4774 41.0327 44.3436 33.6943 44.3436 25.4516C44.3436 12.7838 35.2138 2.24969 23.1755 0.0665894C10.2202 1.00126 0 11.8066 0 25C0 31.9574 2.78994 38.1997 7.37656 42.7317L8.40811 43.6984L25.051 48.47Z" fill="#DCCBFF"/>
<path d="M25 0C23.9234 0 22.8627 0.0681641 21.822 0.200195C34.1285 1.76152 43.6439 12.2695 43.6439 25C43.6439 34.3369 38.5253 42.4779 30.9412 46.771L41.5914 43.6989C46.7489 39.1193 50 32.4398 50 25C50 11.1929 38.8071 0 25 0Z" fill="#C7BEFB"/>
<path d="M32.7037 29.9792C34.3676 29.0034 35.3895 27.218 35.3889 25.2891C35.3871 19.7352 35.3862 16.6965 35.3862 16.6965C35.3862 10.9604 30.7362 6.31036 25.0001 6.31036C19.2639 6.31036 14.6139 10.9604 14.6139 16.6965C14.6139 16.6965 14.6131 19.7353 14.6112 25.2891C14.6105 27.218 15.6325 29.0034 17.2965 29.9792L18.468 30.6663C20.4489 31.828 22.7038 32.4404 25.0002 32.4404C27.2966 32.4404 29.5514 31.828 31.5323 30.6663L32.7037 29.9792Z" fill="#EFC984"/>
<path d="M35.3861 16.6965C35.3861 12.3907 32.7658 8.69691 29.0328 7.1225V31.7927C29.8997 31.5077 30.7382 31.132 31.532 30.6663L32.7036 29.9792C34.3676 29.0035 35.3894 27.218 35.3889 25.2891C35.3871 19.7352 35.3861 16.6965 35.3861 16.6965Z" fill="#EABC6B"/>
<path d="M25 40.8305L31.5898 36.1932L28.9298 32.9713V25.6269H21.0702V32.9713L18.4102 36.1932L25 40.8305Z" fill="#FFDDCE"/>
<path d="M37.8489 34.6878L30.5714 33.2872C29.4223 35.1585 27.3569 36.4067 25 36.4067C22.6431 36.4067 20.5776 35.1585 19.4286 33.2872L12.1511 34.6878C9.37958 35.2212 7.37665 37.6464 7.37665 40.4687V42.7318C11.2741 46.6055 16.4418 49.2018 22.1997 49.8435C22.6315 49.8916 23.0685 49.8652 23.4929 49.7716L25.3439 49.3634C25.7832 49.2665 26.2391 49.2752 26.6744 49.3888C27.2783 49.5463 27.9174 49.501 28.4932 49.2601C34.1613 46.8885 38.8032 42.5539 41.5669 37.1039C40.7137 35.88 39.402 34.9867 37.8489 34.6878Z" fill="#4A80AA"/>
<path d="M42.6233 40.4686C42.6233 38.8751 41.9846 37.4084 40.9297 36.3371C37.2543 43.5474 30.1841 48.738 21.8244 49.7994C22.8376 49.9278 23.8695 49.9964 24.9168 49.9998H24.9193C24.9518 49.9999 25.0345 50 25.0805 49.9998H25.083C31.9261 49.9775 38.1217 47.2058 42.6232 42.7317V40.4686H42.6233Z" fill="#407093"/>
<path d="M25.5057 49.3278C26.4369 46.6318 28.3701 40.5339 28.83 35.1658C27.7538 35.946 26.4309 36.4067 25 36.4067C23.5691 36.4067 22.2462 35.946 21.17 35.1658C21.642 40.6757 23.6665 46.9554 24.5662 49.535L25.5057 49.3278Z" fill="#E28086"/>
<path d="M24.489 49.3126C24.579 49.573 24.6598 49.8028 24.7291 49.9969C25.2417 50.0022 25.0635 49.999 25.2709 49.9969C25.3654 49.7321 25.4813 49.4014 25.6129 49.0153C25.2417 49.1229 24.8671 49.2221 24.489 49.3126Z" fill="#DD636E"/>
<path d="M31.9652 16.0015C29.19 13.0125 28.6748 10.2971 28.6748 10.2971C27.2963 13.9142 23.7952 16.4841 19.6939 16.4841C19.5684 16.4841 19.4435 16.4816 19.3192 16.4769C18.3755 16.4407 17.5917 17.1972 17.5917 18.1416V21.1758C17.6527 25.2161 20.945 28.4731 25 28.4731C29.0549 28.4731 32.3471 25.2162 32.4083 21.1758V17.1323C32.4083 16.7132 32.2504 16.3086 31.9652 16.0015Z" fill="#FFDDCE"/>
<path d="M31.9652 16.0015C30.298 14.2058 29.447 12.5099 29.0328 11.4411V20.8412C28.9766 24.5525 26.1935 27.6008 22.598 28.0729C23.3514 28.3311 24.1589 28.4731 25 28.4731C29.0549 28.4731 32.3471 25.2161 32.4083 21.1758V17.1323C32.4083 16.7132 32.2504 16.3086 31.9652 16.0015Z" fill="#FFCBBE"/>
<path d="M16.785 33.5403C16.4687 33.7341 16.4058 34.1675 16.6541 34.4432L18.195 36.1548C18.4153 36.3995 18.3942 36.7768 18.1481 36.9954L17.1321 37.8982C16.9187 38.0877 16.8133 38.374 16.8636 38.6549C17.4312 41.8264 22.5053 47.8837 24.3409 49.9918C24.4703 49.9949 24.5999 49.9972 24.7298 49.9986C23.8418 47.5112 21.0701 39.245 21.0701 32.9712V30.9142L16.785 33.5403Z" fill="#365E7D"/>
<path d="M33.2149 33.5403L28.93 30.9143V32.9713C28.93 39.2452 26.1583 47.5113 25.2703 49.9987C25.4002 49.9974 25.5298 49.9952 25.6592 49.9919C27.4948 47.8838 32.5688 41.8265 33.1365 38.655C33.1868 38.3741 33.0812 38.0878 32.8679 37.8983L31.8519 36.9956C31.6057 36.7769 31.5847 36.3997 31.8051 36.1549L33.346 34.4433C33.5941 34.1675 33.5312 33.7341 33.2149 33.5403Z" fill="#365E7D"/>
<path d="M33.5314 17.1445H32.4082V20.8555H33.5314C34.5564 20.8555 35.3872 20.0244 35.3869 18.9994C35.3866 17.975 34.556 17.1445 33.5314 17.1445Z" fill="#FFDDCE"/>
</g>
<defs>
<clipPath id="clip0_1_5223">
<rect width="50" height="50" fill="white"/>
</clipPath>
</defs>
</svg>
