<svg width="16" height="16" viewBox="0 0 16 16" fill="none" xmlns="http://www.w3.org/2000/svg">
<g clip-path="url(#clip0_2101_500)">
<path d="M8.92969 3.64688C8.62448 3.61387 8.31436 3.59495 8 3.59024C6.62633 3.59634 5.20236 3.93047 3.85449 4.57072C2.85372 5.06568 1.87885 5.76444 1.03223 6.62638C0.616427 7.06638 0.0857467 7.70347 0 8.3832C0.0101333 8.97203 0.64204 9.69881 1.03223 10.1401C1.82613 10.9681 2.77561 11.6469 3.85449 12.1957C3.89116 12.2135 3.92796 12.2311 3.96484 12.2484L2.96388 13.9965L4.32395 14.8003L11.6762 1.99984L10.367 1.19974L8.92969 3.64688ZM12.0342 4.51994L11.0351 6.25136C11.4947 6.84846 11.7676 7.58478 11.7676 8.3832C11.7676 10.3733 10.0806 11.9867 7.99901 11.9867C7.90903 11.9867 7.82181 11.977 7.73339 11.9711L7.07225 13.1156C7.37716 13.1483 7.68545 13.1721 7.99999 13.1762C9.37496 13.17 10.7981 12.832 12.1445 12.1957C13.1453 11.7008 14.1211 11.002 14.9678 10.1401C15.3836 9.70007 15.9142 9.06296 16 8.3832C15.9899 7.79439 15.3579 7.06762 14.9678 6.62636C14.1739 5.79828 13.2234 5.11952 12.1445 4.5707C12.1081 4.55304 12.0708 4.53716 12.0342 4.51994ZM7.99903 4.77971C8.09031 4.77971 8.18087 4.78336 8.27051 4.78947L7.49609 6.13028C6.40924 6.35063 5.59375 7.27535 5.59375 8.38225C5.59375 8.6603 5.64496 8.9265 5.73925 9.17324C5.73936 9.17352 5.73915 9.17395 5.73925 9.17423L4.96288 10.519C4.5022 9.92131 4.23045 9.18257 4.23045 8.38319C4.23047 6.39313 5.91744 4.7797 7.99903 4.77971ZM10.2519 7.60684L8.50684 10.6303C9.58785 10.4058 10.3975 9.48528 10.3975 8.38225C10.3975 8.10926 10.343 7.84972 10.2519 7.60684Z" fill="#A3A7AB"/>
</g>
<defs>
<clipPath id="clip0_2101_500">
<rect width="16" height="16" fill="white"/>
</clipPath>
</defs>
</svg>
