<svg width="20" height="20" viewBox="0 0 20 20" fill="none" xmlns="http://www.w3.org/2000/svg">
<path d="M4.09375 4.96875L4.91406 16.5028C4.95303 17.1693 5.50469 17.6562 6.22656 17.6562H13.7734C14.4981 17.6562 15.0396 17.1693 15.0859 16.5028L15.9062 4.96875" stroke="#888888" stroke-width="1.00189" stroke-linecap="round" stroke-linejoin="round"/>
<path d="M2.78125 4.96875H17.2188" stroke="#888888" stroke-width="1.00189" stroke-miterlimit="10" stroke-linecap="round"/>
<path d="M7.375 4.96522V3.32436C7.37462 3.19497 7.39982 3.06678 7.44917 2.94716C7.49851 2.82754 7.57101 2.71886 7.66251 2.62736C7.754 2.53586 7.86269 2.46336 7.9823 2.41402C8.10192 2.36468 8.23012 2.33947 8.35951 2.33985H11.6412C11.7706 2.33947 11.8988 2.36468 12.0184 2.41402C12.138 2.46336 12.2467 2.53586 12.3382 2.62736C12.4297 2.71886 12.5022 2.82754 12.5515 2.94716C12.6009 3.06678 12.6261 3.19497 12.6257 3.32436V4.96522" stroke="#888888" stroke-width="1.00189" stroke-linecap="round" stroke-linejoin="round"/>
<path d="M10 7.58984V15.9023" stroke="#888888" stroke-width="1.00189" stroke-linecap="round" stroke-linejoin="round"/>
<path d="M7.04688 7.58984L7.37499 15.9023" stroke="#888888" stroke-width="1.00189" stroke-linecap="round" stroke-linejoin="round"/>
<path d="M12.9531 7.58984L12.625 15.9023" stroke="#888888" stroke-width="1.00189" stroke-linecap="round" stroke-linejoin="round"/>
</svg>
