<svg width="24" height="24" viewBox="0 0 24 24" fill="none" xmlns="http://www.w3.org/2000/svg">
<path d="M17.5002 5.75182H22.7524V11.004" stroke="#F9B300" stroke-width="2" stroke-linecap="round" stroke-linejoin="round"/>
<path d="M2.24973 17.2514L7.93895 11.5622C8.07825 11.4229 8.24362 11.3124 8.42563 11.237C8.60764 11.1616 8.80272 11.1227 8.99974 11.1227C9.19675 11.1227 9.39183 11.1616 9.57384 11.237C9.75585 11.3124 9.92122 11.4229 10.0605 11.5622L12.439 13.9406C12.5782 14.08 12.7436 14.1905 12.9256 14.2659C13.1076 14.3413 13.3027 14.3801 13.4997 14.3801C13.6967 14.3801 13.8918 14.3413 14.0738 14.2659C14.2559 14.1905 14.4212 14.08 14.5605 13.9406L20.9997 7.50142" stroke="#F9B300" stroke-width="2" stroke-linecap="round" stroke-linejoin="round"/>
</svg>
