<svg width="20" height="20" viewBox="0 0 20 20" fill="none" xmlns="http://www.w3.org/2000/svg">
<g clip-path="url(#clip0_2075_82)">
<path d="M9.69374 13.407C9.1219 13.407 8.65894 13.8835 8.65894 14.4554C8.65894 15.0137 9.10827 15.5039 9.69374 15.5039C10.2792 15.5039 10.7422 15.0137 10.7422 14.4554C10.7422 13.8835 10.2657 13.407 9.69374 13.407Z" fill="#A3A7AB"/>
<path d="M9.87082 5.46887C8.03266 5.46887 7.18848 6.55813 7.18848 7.2934C7.18848 7.82446 7.63777 8.06954 8.00543 8.06954C8.74066 8.06954 8.44113 7.0211 9.82996 7.0211C10.5108 7.0211 11.0554 7.32067 11.0554 7.947C11.0554 8.68231 10.2929 9.10438 9.84359 9.48563C9.44875 9.82602 8.93133 10.3843 8.93133 11.5553C8.93133 12.2633 9.12191 12.4675 9.68019 12.4675C10.3474 12.4675 10.4835 12.168 10.4835 11.9093C10.4835 11.2013 10.4972 10.7928 11.2461 10.2073C11.6137 9.92137 12.7711 8.99547 12.7711 7.71555C12.7711 6.43563 11.6137 5.46887 9.87082 5.46887Z" fill="#A3A7AB"/>
<path d="M10 0C4.47328 0 0 4.47254 0 10V19.2188C0 19.6502 0.349766 20 0.78125 20H10C15.5267 20 20 15.5275 20 10C20 4.47328 15.5275 0 10 0ZM10 18.4375H1.5625V10C1.5625 5.33684 5.33621 1.5625 10 1.5625C14.6632 1.5625 18.4375 5.33621 18.4375 10C18.4375 14.6632 14.6638 18.4375 10 18.4375Z" fill="#A3A7AB"/>
</g>
<defs>
<clipPath id="clip0_2075_82">
<rect width="20" height="20" fill="white"/>
</clipPath>
</defs>
</svg>
