<svg width="20" height="20" viewBox="0 0 20 20" fill="none" xmlns="http://www.w3.org/2000/svg">
<g clip-path="url(#clip0_579_1965)">
<mask id="mask0_579_1965" style="mask-type:luminance" maskUnits="userSpaceOnUse" x="0" y="0" width="20" height="20">
<path d="M20 0H0V20H20V0Z" fill="white"/>
</mask>
<g mask="url(#mask0_579_1965)">
<path d="M9.69398 13.4072C9.12214 13.4072 8.65918 13.8837 8.65918 14.4556C8.65918 15.0139 9.10851 15.5041 9.69398 15.5041C10.2794 15.5041 10.7424 15.0139 10.7424 14.4556C10.7424 13.8837 10.2659 13.4072 9.69398 13.4072Z" fill="white"/>
<path d="M9.87082 5.46875C8.03266 5.46875 7.18848 6.55801 7.18848 7.29328C7.18848 7.82434 7.63777 8.06942 8.00543 8.06942C8.74066 8.06942 8.44113 7.02098 9.82996 7.02098C10.5108 7.02098 11.0554 7.32055 11.0554 7.94688C11.0554 8.68219 10.2929 9.10426 9.84359 9.48551C9.44875 9.8259 8.93133 10.3842 8.93133 11.5552C8.93133 12.2632 9.12191 12.4674 9.68019 12.4674C10.3474 12.4674 10.4835 12.1679 10.4835 11.9092C10.4835 11.2012 10.4972 10.7927 11.2461 10.2072C11.6137 9.92125 12.7711 8.99535 12.7711 7.71543C12.7711 6.43551 11.6137 5.46875 9.87082 5.46875Z" fill="white"/>
<path d="M10 0C4.47328 0 0 4.47254 0 10V19.2188C0 19.6502 0.349766 20 0.78125 20H10C15.5267 20 20 15.5275 20 10C20 4.47328 15.5275 0 10 0ZM10 18.4375H1.5625V10C1.5625 5.33684 5.33621 1.5625 10 1.5625C14.6632 1.5625 18.4375 5.33621 18.4375 10C18.4375 14.6632 14.6638 18.4375 10 18.4375Z" fill="white"/>
</g>
</g>
<defs>
<clipPath id="clip0_579_1965">
<rect width="20" height="20" fill="white"/>
</clipPath>
</defs>
</svg>
