<svg width="268" height="51" viewBox="0 0 268 51" fill="none" xmlns="http://www.w3.org/2000/svg">
<path d="M35.4706 3H3V23.3294V43.6588M51 3V48.1765H18.5294" stroke="white" stroke-width="5"/>
<rect x="17.1176" y="15.7059" width="19.7647" height="19.7647" fill="white"/>
<path d="M76.33 26.7C76.33 24.0907 76.9127 21.76 78.078 19.708C79.2687 17.6307 80.8773 16.022 82.904 14.882C84.956 13.7167 87.2487 13.134 89.782 13.134C92.746 13.134 95.3427 13.894 97.572 15.414C99.8013 16.934 101.359 19.0367 102.246 21.722H96.128C95.52 20.4553 94.6587 19.5053 93.544 18.872C92.4547 18.2387 91.188 17.922 89.744 17.922C88.1987 17.922 86.818 18.2893 85.602 19.024C84.4113 19.7333 83.474 20.7467 82.79 22.064C82.1313 23.3813 81.802 24.9267 81.802 26.7C81.802 28.448 82.1313 29.9933 82.79 31.336C83.474 32.6533 84.4113 33.6793 85.602 34.414C86.818 35.1233 88.1987 35.478 89.744 35.478C91.188 35.478 92.4547 35.1613 93.544 34.528C94.6587 33.8693 95.52 32.9067 96.128 31.64H102.246C101.359 34.3507 99.8013 36.466 97.572 37.986C95.368 39.4807 92.7713 40.228 89.782 40.228C87.2487 40.228 84.956 39.658 82.904 38.518C80.8773 37.3527 79.2687 35.744 78.078 33.692C76.9127 31.64 76.33 29.3093 76.33 26.7ZM116.138 40.342C114.111 40.342 112.287 39.8987 110.666 39.012C109.045 38.1 107.765 36.8207 106.828 35.174C105.916 33.5273 105.46 31.6273 105.46 29.474C105.46 27.3207 105.929 25.4207 106.866 23.774C107.829 22.1273 109.133 20.8607 110.78 19.974C112.427 19.062 114.263 18.606 116.29 18.606C118.317 18.606 120.153 19.062 121.8 19.974C123.447 20.8607 124.739 22.1273 125.676 23.774C126.639 25.4207 127.12 27.3207 127.12 29.474C127.12 31.6273 126.626 33.5273 125.638 35.174C124.675 36.8207 123.358 38.1 121.686 39.012C120.039 39.8987 118.19 40.342 116.138 40.342ZM116.138 35.706C117.101 35.706 118 35.478 118.836 35.022C119.697 34.5407 120.381 33.8313 120.888 32.894C121.395 31.9567 121.648 30.8167 121.648 29.474C121.648 27.4727 121.116 25.94 120.052 24.876C119.013 23.7867 117.734 23.242 116.214 23.242C114.694 23.242 113.415 23.7867 112.376 24.876C111.363 25.94 110.856 27.4727 110.856 29.474C110.856 31.4753 111.35 33.0207 112.338 34.11C113.351 35.174 114.618 35.706 116.138 35.706ZM157.166 18.644C159.75 18.644 161.828 19.442 163.398 21.038C164.994 22.6087 165.792 24.8127 165.792 27.65V40H160.472V28.372C160.472 26.7253 160.054 25.4713 159.218 24.61C158.382 23.7233 157.242 23.28 155.798 23.28C154.354 23.28 153.202 23.7233 152.34 24.61C151.504 25.4713 151.086 26.7253 151.086 28.372V40H145.766V28.372C145.766 26.7253 145.348 25.4713 144.512 24.61C143.676 23.7233 142.536 23.28 141.092 23.28C139.623 23.28 138.458 23.7233 137.596 24.61C136.76 25.4713 136.342 26.7253 136.342 28.372V40H131.022V18.948H136.342V21.494C137.026 20.6073 137.9 19.9107 138.964 19.404C140.054 18.8973 141.244 18.644 142.536 18.644C144.183 18.644 145.652 18.9987 146.944 19.708C148.236 20.392 149.237 21.38 149.946 22.672C150.63 21.456 151.618 20.4807 152.91 19.746C154.228 19.0113 155.646 18.644 157.166 18.644ZM176.161 21.988C176.845 21.0253 177.782 20.2273 178.973 19.594C180.189 18.9353 181.569 18.606 183.115 18.606C184.913 18.606 186.535 19.0493 187.979 19.936C189.448 20.8227 190.601 22.0893 191.437 23.736C192.298 25.3573 192.729 27.2447 192.729 29.398C192.729 31.5513 192.298 33.464 191.437 35.136C190.601 36.7827 189.448 38.062 187.979 38.974C186.535 39.886 184.913 40.342 183.115 40.342C181.569 40.342 180.201 40.0253 179.011 39.392C177.845 38.7587 176.895 37.9607 176.161 36.998V50.032H170.841V18.948H176.161V21.988ZM187.295 29.398C187.295 28.1313 187.029 27.042 186.497 26.13C185.99 25.1927 185.306 24.4833 184.445 24.002C183.609 23.5207 182.697 23.28 181.709 23.28C180.746 23.28 179.834 23.5333 178.973 24.04C178.137 24.5213 177.453 25.2307 176.921 26.168C176.414 27.1053 176.161 28.2073 176.161 29.474C176.161 30.7407 176.414 31.8427 176.921 32.78C177.453 33.7173 178.137 34.4393 178.973 34.946C179.834 35.4273 180.746 35.668 181.709 35.668C182.697 35.668 183.609 35.4147 184.445 34.908C185.306 34.4013 185.99 33.6793 186.497 32.742C187.029 31.8047 187.295 30.69 187.295 29.398ZM195.227 29.398C195.227 27.27 195.645 25.3827 196.481 23.736C197.342 22.0893 198.495 20.8227 199.939 19.936C201.408 19.0493 203.042 18.606 204.841 18.606C206.411 18.606 207.779 18.9227 208.945 19.556C210.135 20.1893 211.085 20.9873 211.795 21.95V18.948H217.153V40H211.795V36.922C211.111 37.91 210.161 38.7333 208.945 39.392C207.754 40.0253 206.373 40.342 204.803 40.342C203.029 40.342 201.408 39.886 199.939 38.974C198.495 38.062 197.342 36.7827 196.481 35.136C195.645 33.464 195.227 31.5513 195.227 29.398ZM211.795 29.474C211.795 28.182 211.541 27.08 211.035 26.168C210.528 25.2307 209.844 24.5213 208.983 24.04C208.121 23.5333 207.197 23.28 206.209 23.28C205.221 23.28 204.309 23.5207 203.473 24.002C202.637 24.4833 201.953 25.1927 201.421 26.13C200.914 27.042 200.661 28.1313 200.661 29.398C200.661 30.6647 200.914 31.7793 201.421 32.742C201.953 33.6793 202.637 34.4013 203.473 34.908C204.334 35.4147 205.246 35.668 206.209 35.668C207.197 35.668 208.121 35.4273 208.983 34.946C209.844 34.4393 210.528 33.73 211.035 32.818C211.541 31.8807 211.795 30.766 211.795 29.474ZM234.015 18.644C236.523 18.644 238.549 19.442 240.095 21.038C241.64 22.6087 242.413 24.8127 242.413 27.65V40H237.093V28.372C237.093 26.7 236.675 25.4207 235.839 24.534C235.003 23.622 233.863 23.166 232.419 23.166C230.949 23.166 229.784 23.622 228.923 24.534C228.087 25.4207 227.669 26.7 227.669 28.372V40H222.349V18.948H227.669V21.57C228.378 20.658 229.277 19.9487 230.367 19.442C231.481 18.91 232.697 18.644 234.015 18.644ZM267.612 18.948L254.578 49.956H248.916L253.476 39.468L245.04 18.948H251.006L256.44 33.654L261.95 18.948H267.612Z" fill="white"/>
</svg>
