<svg width="191" height="40" viewBox="0 0 191 40" fill="none" xmlns="http://www.w3.org/2000/svg">
<path d="M26.7791 3H2V18.5139V34.0278M38.63 3V37.4753H13.8509" stroke="#8D75BE" stroke-width="4"/>
<rect x="14" y="14" width="13.08" height="13.0825" fill="#8D75BE"/>
<path d="M59.5399 19.9C59.5399 18.1147 59.9385 16.52 60.7359 15.116C61.5505 13.6947 62.6512 12.594 64.0379 11.814C65.4419 11.0167 67.0105 10.618 68.7439 10.618C70.7719 10.618 72.5486 11.138 74.0739 12.178C75.5992 13.218 76.6652 14.6567 77.2719 16.494H73.0859C72.6699 15.6273 72.0805 14.9773 71.3179 14.544C70.5726 14.1107 69.7059 13.894 68.7179 13.894C67.6605 13.894 66.7159 14.1453 65.8839 14.648C65.0692 15.1333 64.4279 15.8267 63.9599 16.728C63.5092 17.6293 63.2839 18.6867 63.2839 19.9C63.2839 21.096 63.5092 22.1533 63.9599 23.072C64.4279 23.9733 65.0692 24.6753 65.8839 25.178C66.7159 25.6633 67.6605 25.906 68.7179 25.906C69.7059 25.906 70.5726 25.6893 71.3179 25.256C72.0805 24.8053 72.6699 24.1467 73.0859 23.28H77.2719C76.6652 25.1347 75.5992 26.582 74.0739 27.622C72.5659 28.6447 70.7892 29.156 68.7439 29.156C67.0105 29.156 65.4419 28.766 64.0379 27.986C62.6512 27.1887 61.5505 26.088 60.7359 24.684C59.9385 23.28 59.5399 21.6853 59.5399 19.9ZM86.7769 29.234C85.3902 29.234 84.1422 28.9307 83.0329 28.324C81.9236 27.7 81.0482 26.8247 80.4069 25.698C79.7829 24.5713 79.4709 23.2713 79.4709 21.798C79.4709 20.3247 79.7916 19.0247 80.4329 17.898C81.0916 16.7713 81.9842 15.9047 83.1109 15.298C84.2376 14.674 85.4942 14.362 86.8809 14.362C88.2676 14.362 89.5242 14.674 90.6509 15.298C91.7776 15.9047 92.6616 16.7713 93.3029 17.898C93.9616 19.0247 94.2909 20.3247 94.2909 21.798C94.2909 23.2713 93.9529 24.5713 93.2769 25.698C92.6182 26.8247 91.7169 27.7 90.5729 28.324C89.4462 28.9307 88.1809 29.234 86.7769 29.234ZM86.7769 26.062C87.4356 26.062 88.0509 25.906 88.6229 25.594C89.2122 25.2647 89.6802 24.7793 90.0269 24.138C90.3736 23.4967 90.5469 22.7167 90.5469 21.798C90.5469 20.4287 90.1829 19.38 89.4549 18.652C88.7442 17.9067 87.8689 17.534 86.8289 17.534C85.7889 17.534 84.9136 17.9067 84.2029 18.652C83.5096 19.38 83.1629 20.4287 83.1629 21.798C83.1629 23.1673 83.5009 24.2247 84.1769 24.97C84.8702 25.698 85.7369 26.062 86.7769 26.062ZM114.849 14.388C116.617 14.388 118.038 14.934 119.113 16.026C120.205 17.1007 120.751 18.6087 120.751 20.55V29H117.111V21.044C117.111 19.9173 116.825 19.0593 116.253 18.47C115.681 17.8633 114.901 17.56 113.913 17.56C112.925 17.56 112.136 17.8633 111.547 18.47C110.975 19.0593 110.689 19.9173 110.689 21.044V29H107.049V21.044C107.049 19.9173 106.763 19.0593 106.191 18.47C105.619 17.8633 104.839 17.56 103.851 17.56C102.846 17.56 102.048 17.8633 101.459 18.47C100.887 19.0593 100.601 19.9173 100.601 21.044V29H96.961V14.596H100.601V16.338C101.069 15.7313 101.667 15.2547 102.395 14.908C103.14 14.5613 103.955 14.388 104.839 14.388C105.966 14.388 106.971 14.6307 107.855 15.116C108.739 15.584 109.424 16.26 109.909 17.144C110.377 16.312 111.053 15.6447 111.937 15.142C112.838 14.6393 113.809 14.388 114.849 14.388ZM127.845 16.676C128.313 16.0173 128.954 15.4713 129.769 15.038C130.601 14.5873 131.546 14.362 132.603 14.362C133.834 14.362 134.943 14.6653 135.931 15.272C136.936 15.8787 137.725 16.7453 138.297 17.872C138.886 18.9813 139.181 20.2727 139.181 21.746C139.181 23.2193 138.886 24.528 138.297 25.672C137.725 26.7987 136.936 27.674 135.931 28.298C134.943 28.922 133.834 29.234 132.603 29.234C131.546 29.234 130.61 29.0173 129.795 28.584C128.998 28.1507 128.348 27.6047 127.845 26.946V35.864H124.205V14.596H127.845V16.676ZM135.463 21.746C135.463 20.8793 135.281 20.134 134.917 19.51C134.57 18.8687 134.102 18.3833 133.513 18.054C132.941 17.7247 132.317 17.56 131.641 17.56C130.982 17.56 130.358 17.7333 129.769 18.08C129.197 18.4093 128.729 18.8947 128.365 19.536C128.018 20.1773 127.845 20.9313 127.845 21.798C127.845 22.6647 128.018 23.4187 128.365 24.06C128.729 24.7013 129.197 25.1953 129.769 25.542C130.358 25.8713 130.982 26.036 131.641 26.036C132.317 26.036 132.941 25.8627 133.513 25.516C134.102 25.1693 134.57 24.6753 134.917 24.034C135.281 23.3927 135.463 22.63 135.463 21.746ZM140.89 21.746C140.89 20.29 141.176 18.9987 141.748 17.872C142.338 16.7453 143.126 15.8787 144.114 15.272C145.12 14.6653 146.238 14.362 147.468 14.362C148.543 14.362 149.479 14.5787 150.276 15.012C151.091 15.4453 151.741 15.9913 152.226 16.65V14.596H155.892V29H152.226V26.894C151.758 27.57 151.108 28.1333 150.276 28.584C149.462 29.0173 148.517 29.234 147.442 29.234C146.229 29.234 145.12 28.922 144.114 28.298C143.126 27.674 142.338 26.7987 141.748 25.672C141.176 24.528 140.89 23.2193 140.89 21.746ZM152.226 21.798C152.226 20.914 152.053 20.16 151.706 19.536C151.36 18.8947 150.892 18.4093 150.302 18.08C149.713 17.7333 149.08 17.56 148.404 17.56C147.728 17.56 147.104 17.7247 146.532 18.054C145.96 18.3833 145.492 18.8687 145.128 19.51C144.782 20.134 144.608 20.8793 144.608 21.746C144.608 22.6127 144.782 23.3753 145.128 24.034C145.492 24.6753 145.96 25.1693 146.532 25.516C147.122 25.8627 147.746 26.036 148.404 26.036C149.08 26.036 149.713 25.8713 150.302 25.542C150.892 25.1953 151.36 24.71 151.706 24.086C152.053 23.4447 152.226 22.682 152.226 21.798ZM167.429 14.388C169.145 14.388 170.532 14.934 171.589 16.026C172.647 17.1007 173.175 18.6087 173.175 20.55V29H169.535V21.044C169.535 19.9 169.249 19.0247 168.677 18.418C168.105 17.794 167.325 17.482 166.337 17.482C165.332 17.482 164.535 17.794 163.945 18.418C163.373 19.0247 163.087 19.9 163.087 21.044V29H159.447V14.596H163.087V16.39C163.573 15.766 164.188 15.2807 164.933 14.934C165.696 14.57 166.528 14.388 167.429 14.388ZM190.417 14.596L181.499 35.812H177.625L180.745 28.636L174.973 14.596H179.055L182.773 24.658L186.543 14.596H190.417Z" fill="#8D75BE"/>
</svg>
