<svg width="12" height="12" viewBox="0 0 12 12" fill="none" xmlns="http://www.w3.org/2000/svg">
<g clip-path="url(#clip0_1_5818)">
<path d="M11.471 6.26577C11.4735 6.26332 11.4735 6.26332 11.4759 6.26087C11.4833 6.25107 11.4906 6.24372 11.4955 6.23393C11.498 6.23148 11.498 6.22903 11.5004 6.22658C11.5053 6.21678 11.5127 6.20698 11.5176 6.19718C11.5176 6.19473 11.52 6.19228 11.52 6.19228C11.5249 6.18249 11.5298 6.17269 11.5347 6.16044C11.5347 6.15799 11.5347 6.15799 11.5372 6.15554C11.5421 6.14574 11.5445 6.1335 11.5494 6.12125C11.5494 6.1188 11.5494 6.11635 11.5519 6.11635C11.5543 6.1041 11.5592 6.09431 11.5592 6.08206C11.5592 6.07716 11.5592 6.07471 11.5617 6.06981C11.5641 6.06001 11.5641 6.05021 11.5666 6.04042C11.569 6.02572 11.569 6.01347 11.569 5.99878C11.569 5.98408 11.569 5.97183 11.5666 5.95713C11.5666 5.94734 11.5641 5.93754 11.5617 5.92774C11.5617 5.92284 11.5617 5.92039 11.5592 5.91549C11.5568 5.90325 11.5543 5.89345 11.5519 5.8812C11.5519 5.87875 11.5519 5.8763 11.5494 5.8763C11.547 5.86405 11.5421 5.85426 11.5372 5.84201C11.5372 5.83956 11.5372 5.83956 11.5347 5.83711C11.5298 5.82731 11.5249 5.81506 11.52 5.80527C11.52 5.80282 11.5176 5.80037 11.5176 5.80037C11.5127 5.79057 11.5078 5.78077 11.5004 5.77097C11.498 5.76852 11.498 5.76607 11.4955 5.76363C11.4882 5.75383 11.4833 5.74403 11.4759 5.73668C11.4735 5.73423 11.4735 5.73423 11.471 5.73178C11.4612 5.72198 11.4539 5.70974 11.4416 5.69994L9.01909 3.27985C8.85498 3.11574 8.58798 3.11574 8.42387 3.27985C8.25975 3.44397 8.25975 3.71096 8.42387 3.87508L10.1287 5.57991H3.351C3.1183 5.57991 2.92969 5.76852 2.92969 5.99878C2.92969 6.23148 3.1183 6.42009 3.351 6.42009H10.1312L8.43857 8.11268C8.27445 8.27679 8.27445 8.54378 8.43857 8.7079C8.5194 8.78873 8.62718 8.83037 8.73495 8.83037C8.84273 8.83037 8.95051 8.78873 9.03134 8.7079L11.4392 6.30006C11.4514 6.28536 11.4612 6.27557 11.471 6.26577Z" fill="#1C293A"/>
<path d="M2.71162 0.840171H5.84695C6.07965 0.840171 6.26826 0.651562 6.26826 0.421311C6.26826 0.18861 6.07965 0 5.84695 0H2.71162C1.45503 0 0.431152 1.02388 0.431152 2.28047V9.71953C0.431152 10.9761 1.45503 12 2.71162 12H5.79551C6.02821 12 6.21682 11.8114 6.21682 11.5811C6.21682 11.3484 6.02821 11.1598 5.79551 11.1598H2.71162C1.91799 11.1598 1.27132 10.5132 1.27132 9.71953V2.28047C1.27377 1.48438 1.91799 0.840171 2.71162 0.840171Z" fill="#1C293A"/>
</g>
<defs>
<clipPath id="clip0_1_5818">
<rect width="12" height="12" fill="white"/>
</clipPath>
</defs>
</svg>
