<svg width="26" height="26" viewBox="0 0 26 26" fill="none" xmlns="http://www.w3.org/2000/svg">
<path d="M21.718 17.8451C20.414 16.249 19.4933 15.4365 19.4933 11.0363C19.4933 7.00684 17.4356 5.57125 15.7421 4.87402C15.5171 4.7816 15.3054 4.56934 15.2368 4.33828C14.9397 3.32723 14.1069 2.43652 12.9999 2.43652C11.8929 2.43652 11.0595 3.32773 10.7655 4.3393C10.697 4.57289 10.4852 4.7816 10.2602 4.87402C8.56465 5.57227 6.50903 7.00278 6.50903 11.0363C6.50649 15.4365 5.58582 16.249 4.28176 17.8451C3.74145 18.5063 4.21473 19.499 5.15977 19.499H20.8451C21.785 19.499 22.2553 18.5032 21.718 17.8451Z" stroke="#404040" stroke-width="1.5" stroke-linecap="round" stroke-linejoin="round"/>
<path d="M16.2504 19.499V20.3116C16.2504 21.1737 15.908 22.0005 15.2984 22.6101C14.6888 23.2196 13.8621 23.5621 13 23.5621C12.1379 23.5621 11.3111 23.2196 10.7016 22.6101C10.092 22.0005 9.74951 21.1737 9.74951 20.3116V19.499" stroke="#404040" stroke-width="1.5" stroke-linecap="round" stroke-linejoin="round"/>
</svg>
