<svg width="21" height="20" viewBox="0 0 21 20" fill="none" xmlns="http://www.w3.org/2000/svg">
<path d="M7.91273 8.66356C8.00374 8.67493 8.09096 8.67873 8.18197 8.67873C8.7432 8.67873 9.28168 8.48912 9.72156 8.13267C10.2335 7.71933 10.5558 7.13155 10.6279 6.47552C10.6999 5.81949 10.5103 5.17863 10.097 4.6667C9.24376 3.6087 7.689 3.44185 6.63101 4.29507C6.11907 4.70841 5.79675 5.29618 5.7247 5.95221C5.65265 6.60825 5.84225 7.24911 6.25559 7.76104C6.67272 8.27297 7.26049 8.5953 7.91273 8.66356ZM6.85853 6.07356C6.89645 5.7209 7.07089 5.40615 7.34392 5.18242C7.58282 4.98902 7.87102 4.89043 8.17439 4.89043C8.22368 4.89043 8.26919 4.89422 8.31849 4.89801C8.67115 4.93593 8.98589 5.11037 9.20963 5.38719C9.43336 5.66401 9.53195 6.0091 9.49403 6.36176C9.45611 6.71442 9.28168 7.02917 9.00865 7.2529C8.73562 7.47663 8.38674 7.57523 8.03408 7.53731C7.68142 7.49939 7.36667 7.32495 7.14294 7.04813C6.923 6.77131 6.82061 6.42622 6.85853 6.07356Z" fill="#979797"/>
<path d="M15.5689 11.4621C14.7157 10.4041 13.1609 10.2373 12.1029 11.0905C11.591 11.5038 11.2687 12.0916 11.1966 12.7476C11.1246 13.4037 11.3142 14.0445 11.7275 14.5565C12.1409 15.0684 12.7286 15.3907 13.3847 15.4628C13.4757 15.4741 13.5629 15.4779 13.6539 15.4779C14.2151 15.4779 14.7536 15.2883 15.1935 14.9319C16.2515 14.0749 16.4221 12.5201 15.5689 11.4621ZM14.4806 14.0407C14.2037 14.2645 13.8587 14.3631 13.506 14.3251C13.1533 14.2872 12.8386 14.1128 12.6149 13.836C12.3911 13.5591 12.2925 13.2141 12.3305 12.8614C12.3684 12.5087 12.5428 12.194 12.8158 11.9702C13.0623 11.7731 13.3543 11.6783 13.6463 11.6783C14.0331 11.6783 14.4199 11.8489 14.6816 12.1712C15.1404 12.7438 15.0494 13.5819 14.4806 14.0407Z" fill="#979797"/>
<path d="M15.9633 5.29996C15.7661 5.05347 15.4097 5.01555 15.1632 5.21274L5.71329 12.8273C5.4668 13.0244 5.42888 13.3809 5.62607 13.6274C5.73983 13.7677 5.90289 13.8397 6.06974 13.8397C6.19488 13.8397 6.32002 13.798 6.4262 13.7146L15.8761 6.10388C16.1226 5.9029 16.1605 5.54644 15.9633 5.29996Z" fill="#979797"/>
</svg>
