<svg width="18" height="18" viewBox="0 0 18 18" fill="none" xmlns="http://www.w3.org/2000/svg">
<g clip-path="url(#clip0_702_2052)">
<mask id="mask0_702_2052" style="mask-type:luminance" maskUnits="userSpaceOnUse" x="0" y="0" width="18" height="18">
<path d="M18 0H0V18H18V0Z" fill="white"/>
</mask>
<g mask="url(#mask0_702_2052)">
<path d="M10.9336 7.80469C9.22769 7.80469 7.83984 9.19254 7.83984 10.8984C7.83984 12.6043 9.22769 13.9922 10.9336 13.9922C12.6395 13.9922 14.0273 12.6043 14.0273 10.8984C14.0273 9.19254 12.6395 7.80469 10.9336 7.80469ZM10.9336 13.2891C9.61537 13.2891 8.54297 12.2167 8.54297 10.8984C8.54297 9.5802 9.61537 8.50781 10.9336 8.50781C12.2518 8.50781 13.3242 9.5802 13.3242 10.8984C13.3242 12.2167 12.2518 13.2891 10.9336 13.2891Z" fill="#A3A7AB"/>
<path d="M17.6859 15.9649L14.8958 13.1747C15.2825 12.5041 15.504 11.7267 15.504 10.8984C15.504 9.6761 15.0216 8.56439 14.2373 7.74344V3.79646C14.2376 3.79646 14.237 3.79646 14.2373 3.79646C14.2373 3.705 14.2016 3.61519 14.1345 3.5479L10.6896 0.102997C10.6223 0.035706 10.5323 0.000961006 10.4409 0.000961006C10.4408 0.00137301 10.4409 0.000549006 10.4409 0.000961006L1.08984 0C0.508255 0 0.0351562 0.473099 0.0351562 1.05469V16.9453C0.0351562 17.5269 0.508255 18 1.08984 18H13.1828C13.7642 18 14.2375 17.5269 14.2375 16.9453V15.8882L16.0001 17.6509C16.2324 17.8833 16.5377 17.9995 16.8431 17.9995C17.1484 17.9995 17.4537 17.8833 17.6861 17.6509C18.1508 17.1861 18.1508 16.4298 17.6859 15.9649ZM10.9337 14.7656C8.80142 14.7656 7.06654 13.0307 7.06654 10.8984C7.06654 8.76613 8.80142 7.03125 10.9337 7.03125C13.066 7.03125 14.8009 8.76613 14.8009 10.8984C14.8009 13.0307 13.066 14.7656 10.9337 14.7656ZM10.7926 1.20039L13.0371 3.44504H11.1441C10.9502 3.44504 10.7926 3.28725 10.7926 3.09348V1.20039ZM13.5343 16.9453C13.5343 17.1392 13.3765 17.2969 13.1828 17.2969H1.08984C0.895935 17.2969 0.738281 17.1392 0.738281 16.9453V1.05469C0.738281 0.86078 0.895935 0.70312 1.08984 0.70312H10.0894V3.09334C10.0894 3.67493 10.5625 4.14803 11.1441 4.14803H13.5342V7.14235C12.7956 6.62929 11.8993 6.32812 10.9337 6.32812C8.4136 6.32812 6.36342 8.37831 6.36342 10.8984C6.36342 11.3905 6.44197 11.8647 6.58658 12.3092H2.29051C2.09647 12.3092 1.93895 12.4666 1.93895 12.6608C1.93895 12.8548 2.09647 13.0123 2.29051 13.0123H6.7798C6.8129 13.0123 6.84503 13.0074 6.87538 12.9987C7.63728 14.4649 9.17043 15.4688 10.9337 15.4688C11.7618 15.4688 12.5392 15.2472 13.2098 14.8605L13.5343 15.185V16.9453ZM17.1888 17.1536C16.9982 17.3444 16.688 17.3444 16.4973 17.1536L13.7995 14.4558C14.0538 14.2505 14.2857 14.0187 14.491 13.7644L17.1888 16.4621C17.3795 16.6528 17.3795 16.963 17.1888 17.1536Z" fill="#A3A7AB"/>
<path d="M10.9336 9.31641C10.7394 9.31641 10.582 9.47379 10.582 9.66797C10.582 9.86217 10.7394 10.0196 10.9336 10.0196C11.4181 10.0196 11.8124 10.4138 11.8124 10.8983C11.8124 11.0925 11.9697 11.2499 12.1639 11.2499C12.3581 11.2499 12.5155 11.0925 12.5155 10.8983C12.5155 10.026 11.8059 9.31641 10.9336 9.31641Z" fill="#A3A7AB"/>
<path d="M5.45494 9.87109H2.29102C2.09697 9.87109 1.93945 10.0285 1.93945 10.2227C1.93945 10.4169 2.09697 10.5743 2.29102 10.5743H5.45494C5.64913 10.5743 5.80651 10.4169 5.80651 10.2227C5.80651 10.0285 5.64913 9.87109 5.45494 9.87109Z" fill="#A3A7AB"/>
<path d="M5.66327 7.43359H2.29102C2.09697 7.43359 1.93945 7.59097 1.93945 7.78516C1.93945 7.9792 2.09697 8.13672 2.29102 8.13672H5.66327C5.85745 8.13672 6.01483 7.9792 6.01483 7.78516C6.01483 7.59097 5.85745 7.43359 5.66327 7.43359Z" fill="#A3A7AB"/>
<path d="M6.71484 14.7461C6.62228 14.7461 6.53165 14.7836 6.46628 14.8491C6.40091 14.9144 6.36328 15.0051 6.36328 15.0976C6.36328 15.1901 6.40091 15.2808 6.46628 15.3461C6.53165 15.4116 6.62228 15.4492 6.71484 15.4492C6.80727 15.4492 6.89804 15.4116 6.96368 15.3461C7.02905 15.2808 7.06641 15.1901 7.06641 15.0976C7.06641 15.0051 7.02905 14.9144 6.96368 14.8491C6.89804 14.7836 6.80727 14.7461 6.71484 14.7461Z" fill="#A3A7AB"/>
<path d="M5.27147 14.7461H2.29102C2.09697 14.7461 1.93945 14.9035 1.93945 15.0976C1.93945 15.2917 2.09697 15.4492 2.29102 15.4492H5.27147C5.46552 15.4492 5.62303 15.2917 5.62303 15.0976C5.62303 14.9035 5.46565 14.7461 5.27147 14.7461Z" fill="#A3A7AB"/>
<path d="M2.29102 5.69921C2.38385 5.69921 2.47421 5.66159 2.53958 5.59622C2.60536 5.53044 2.64258 5.44021 2.64258 5.34765C2.64258 5.25523 2.60536 5.16459 2.53958 5.09881C2.47421 5.03344 2.38344 4.99609 2.29102 4.99609C2.19859 4.99609 2.10823 5.03344 2.04245 5.09881C1.97708 5.16418 1.93945 5.25482 1.93945 5.34765C1.93945 5.44021 1.97708 5.53085 2.04245 5.59622C2.10796 5.66159 2.19859 5.69921 2.29102 5.69921Z" fill="#A3A7AB"/>
<path d="M9.03574 4.99609H3.78125C3.58721 4.99609 3.42969 5.15347 3.42969 5.34765C3.42969 5.5417 3.58721 5.69921 3.78125 5.69921H9.03574C9.22992 5.69921 9.3873 5.5417 9.3873 5.34765C9.3873 5.15347 9.22992 4.99609 9.03574 4.99609Z" fill="#A3A7AB"/>
<path d="M2.29102 3.26171H9.03566C9.22984 3.26171 9.38722 3.10433 9.38722 2.91015C9.38722 2.71597 9.22984 2.55859 9.03566 2.55859H2.29102C2.09697 2.55859 1.93945 2.71597 1.93945 2.91015C1.93945 3.10433 2.09697 3.26171 2.29102 3.26171Z" fill="#A3A7AB"/>
</g>
</g>
<defs>
<clipPath id="clip0_702_2052">
<rect width="18" height="18" fill="white"/>
</clipPath>
</defs>
</svg>
