<svg width="18" height="18" viewBox="0 0 18 18" fill="none" xmlns="http://www.w3.org/2000/svg">
<g clip-path="url(#clip0_1_5612)">
<path d="M2.625 1.5H0.375C0.168 1.5 0 1.668 0 1.875V4.125C0 4.332 0.168 4.5 0.375 4.5H2.625C2.832 4.5 3 4.332 3 4.125V1.875C3 1.668 2.832 1.5 2.625 1.5Z" fill="#A3A7AB"/>
<path d="M2.625 7.5H0.375C0.168 7.5 0 7.668 0 7.875V10.125C0 10.332 0.168 10.5 0.375 10.5H2.625C2.832 10.5 3 10.332 3 10.125V7.875C3 7.668 2.832 7.5 2.625 7.5Z" fill="#A3A7AB"/>
<path d="M2.625 13.5H0.375C0.168 13.5 0 13.668 0 13.875V16.125C0 16.332 0.168 16.5 0.375 16.5H2.625C2.832 16.5 3 16.332 3 16.125V13.875C3 13.668 2.832 13.5 2.625 13.5Z" fill="#A3A7AB"/>
<path d="M6 3.75H17.25C17.6648 3.75 18 3.41475 18 3C18 2.58525 17.6648 2.25 17.25 2.25H6C5.58525 2.25 5.25 2.58525 5.25 3C5.25 3.41475 5.58525 3.75 6 3.75Z" fill="#A3A7AB"/>
<path d="M17.25 8.25H6C5.58525 8.25 5.25 8.58525 5.25 9C5.25 9.41475 5.58525 9.75 6 9.75H17.25C17.6648 9.75 18 9.41475 18 9C18 8.58525 17.6648 8.25 17.25 8.25Z" fill="#A3A7AB"/>
<path d="M17.25 14.25H6C5.58525 14.25 5.25 14.5853 5.25 15C5.25 15.4147 5.58525 15.75 6 15.75H17.25C17.6648 15.75 18 15.4147 18 15C18 14.5853 17.6648 14.25 17.25 14.25Z" fill="#A3A7AB"/>
</g>
<defs>
<clipPath id="clip0_1_5612">
<rect width="18" height="18" fill="white"/>
</clipPath>
</defs>
</svg>
