<svg width="50" height="50" viewBox="0 0 50 50" fill="none" xmlns="http://www.w3.org/2000/svg">
<g clip-path="url(#clip0_1_5181)">
<path d="M25.0024 47.2006L34.9076 44.6992C40.5614 40.0045 44.1626 32.9232 44.1626 25.0001C44.1626 12.779 35.5971 2.55857 24.1419 0.0145264C10.7321 0.466772 0 11.4801 0 25C0 31.9445 2.83203 38.2271 7.40352 42.7574L25.0024 47.2006Z" fill="#F1FFCB"/>
<path d="M43.6439 25C43.6439 33.1948 39.7005 40.4679 33.6083 45.0272L42.5957 42.7576C47.1675 38.2273 50 31.9447 50 25C50 11.1929 38.8071 0 25 0C23.9234 0 22.8627 0.0681641 21.822 0.200195C34.1285 1.76152 43.6439 12.2695 43.6439 25Z" fill="#E4FBBE"/>
<path d="M31.213 9.46798C31.213 8.19113 30.1779 7.15607 28.9011 7.15607H20.9341C17.9955 7.15607 15.6133 9.53829 15.6133 12.4769V18.3844H34.3837V12.5607C34.3837 11.2838 33.3486 10.2487 32.0718 10.2487H31.9938C31.5626 10.2487 31.213 9.89923 31.213 9.46798Z" fill="#365E7D"/>
<path d="M32.0718 10.2487H31.9938C31.5626 10.2487 31.213 9.89911 31.213 9.46786C31.213 8.191 30.1779 7.15594 28.9011 7.15594H28.0275V18.3843H34.3836V12.5605C34.3837 11.2839 33.3485 10.2487 32.0718 10.2487Z" fill="#2B4D66"/>
<path d="M41.5083 36.3628C40.8971 35.7591 40.141 35.2922 39.2827 35.0205L32.4574 32.8595L25.0015 32.5975L17.5426 32.8595L10.7173 35.0205C8.40829 35.7515 6.83905 37.8943 6.83905 40.3163V42.1809C11.213 46.8028 17.3323 49.7559 24.1421 49.9856C31.7718 48.291 38.1195 43.1911 41.5083 36.3628Z" fill="#4A80AA"/>
<path d="M43.1609 42.1809V40.3162C43.1609 38.6037 42.3758 37.0315 41.0999 35.9985C37.4758 43.3839 30.3165 48.72 21.8278 49.799C22.8524 49.9288 23.896 49.998 24.9554 49.9999C25.9732 49.9983 26.9776 49.9394 27.9655 49.8259C33.9256 49.1216 39.2433 46.3206 43.1609 42.1809Z" fill="#407093"/>
<path d="M25.566 49.6258C27.0786 46.6228 31.0174 38.0958 29.8942 32.7694L25.0016 30.8652L20.1043 32.7695C18.9465 38.2603 23.1678 47.1521 24.5653 49.8877C24.9015 49.807 25.2351 49.7196 25.566 49.6258Z" fill="#E4F6FF"/>
<path d="M28.1442 47.245L26.1604 39.4406H23.8394L21.8605 47.2237L24.3076 49.948C24.9288 49.8057 25.5414 49.6408 26.1445 49.4542L28.1442 47.245Z" fill="#E28086"/>
<path d="M24.3459 49.9907C24.5485 49.996 24.7515 49.9996 24.9554 50C25.1912 49.9996 25.4263 49.9955 25.6606 49.989L26.9211 48.5965C25.929 48.9445 24.9084 49.2319 23.8636 49.4538L24.3459 49.9907Z" fill="#DD636E"/>
<path d="M29.1772 32.0491V27.6481H20.8197V32.0491C20.8197 34.3569 24.9984 36.8778 24.9984 36.8778C24.9984 36.8778 29.1772 34.3569 29.1772 32.0491Z" fill="#FFDDCE"/>
<path d="M34.3837 17.6091H32.7861C31.8977 17.6091 31.1774 16.8889 31.1774 16.0004V15.1201C31.1774 13.9628 30.0451 13.1445 28.9463 13.5077C26.3835 14.3547 23.6163 14.3549 21.0534 13.5083L21.0504 13.5073C19.9516 13.1443 18.8194 13.9626 18.8194 15.1198V16.0005C18.8194 16.889 18.0992 17.6092 17.2107 17.6092H15.6133V20.2399C15.6133 20.9121 16.1582 21.4571 16.8305 21.4571C17.0426 21.4571 17.2151 21.6232 17.2285 21.8349C17.4852 25.9041 20.8647 29.1253 24.9985 29.1253C29.1323 29.1253 32.5119 25.9041 32.7686 21.8349C32.7819 21.6233 32.9545 21.4571 33.1666 21.4571C33.8388 21.4571 34.3838 20.9122 34.3838 20.2399V17.6091H34.3837Z" fill="#FFDDCE"/>
<path d="M32.7861 17.6091C31.8977 17.6091 31.1775 16.8889 31.1775 16.0004V15.1201C31.1775 13.9627 30.0451 13.1445 28.9463 13.5077C28.6428 13.608 28.3362 13.6955 28.0276 13.772V22.4607C27.9849 25.2876 26.4359 27.748 24.1483 29.0777C24.4276 29.1081 24.711 29.1251 24.9984 29.1251C29.1322 29.1251 32.5118 25.9039 32.7685 21.8347C32.7818 21.6231 32.9544 21.4569 33.1665 21.4569C33.8387 21.4569 34.3837 20.912 34.3837 20.2397V17.609L32.7861 17.6091Z" fill="#FFCBBE"/>
<path d="M20.8197 30.8652L17.5426 33.528L20.9793 37.7773C21.3974 38.1844 22.0554 38.2094 22.5032 37.8354L25.0877 35.6765L20.8197 30.8652Z" fill="#F4FBFF"/>
<path d="M29.1787 30.8652L25.0877 35.6765L27.5168 37.7534C27.9618 38.1339 28.6229 38.1147 29.0452 37.7092L32.4573 33.528L29.1787 30.8652Z" fill="#F4FBFF"/>
<path d="M20.8197 30.8652L16.0095 33.2284C15.6433 33.4083 15.4963 33.8538 15.6833 34.2164L16.6257 36.0436C16.8699 36.517 16.7798 37.0939 16.4028 37.4703C16.2088 37.664 15.9986 37.8737 15.8165 38.0556C15.4905 38.381 15.3734 38.8617 15.517 39.2994C16.6548 42.7679 22.1307 48.0717 24.2031 49.9906C24.3425 49.9943 24.4821 49.9969 24.622 49.9984C23.1192 47.0753 17.7937 35.9696 20.8197 30.8652Z" fill="#365E7D"/>
<path d="M33.5956 37.4702C33.2185 37.0938 33.1285 36.5169 33.3727 36.0435L34.3151 34.2163C34.5021 33.8537 34.3551 33.4082 33.9889 33.2283L29.1787 30.8652C32.2039 35.9683 26.8821 47.0692 25.3776 49.9961C25.519 49.9937 25.6601 49.9901 25.801 49.9855C27.8776 48.0621 33.3447 42.7647 34.4814 39.2995C34.625 38.8618 34.5079 38.3811 34.1819 38.0557C33.9998 37.8737 33.7896 37.6639 33.5956 37.4702Z" fill="#365E7D"/>
<path d="M25.0877 35.6765L22.5428 37.8018L23.8394 39.4406H26.1604L27.4572 37.7052L25.0877 35.6765Z" fill="#DD636E"/>
</g>
<defs>
<clipPath id="clip0_1_5181">
<rect width="50" height="50" fill="white"/>
</clipPath>
</defs>
</svg>
