<svg width="20" height="20" viewBox="0 0 20 20" fill="none" xmlns="http://www.w3.org/2000/svg">
<path d="M17.6785 8.25537V16.7322C17.6785 17.2863 17.4584 17.8178 17.0666 18.2096C16.6748 18.6014 16.1434 18.8215 15.5892 18.8215H5.83928C5.28517 18.8215 4.75375 18.6014 4.36193 18.2096C3.97012 17.8178 3.75 17.2863 3.75 16.7322V2.80364C3.75 2.24953 3.97012 1.71811 4.36193 1.3263C4.75375 0.934476 5.28517 0.714355 5.83928 0.714355H10.1375C10.5068 0.714411 10.8609 0.861111 11.1221 1.12221L17.2707 7.2708C17.5318 7.53195 17.6785 7.88609 17.6785 8.25537Z" stroke="#FEFEFE" stroke-width="1.2" stroke-linejoin="round"/>
<path d="M10.7144 1.47314V6.16131C10.7144 6.49288 10.8461 6.81087 11.0805 7.04532C11.315 7.27978 11.633 7.41149 11.9645 7.41149H16.6527" stroke="#FEFEFE" stroke-width="1.2" stroke-linecap="round" stroke-linejoin="round"/>
<path d="M7.14258 11.25H13.3935" stroke="#FEFEFE" stroke-width="1.2" stroke-linecap="round" stroke-linejoin="round"/>
<path d="M7.14258 14.375H13.3935" stroke="#FEFEFE" stroke-width="1.2" stroke-linecap="round" stroke-linejoin="round"/>
</svg>
