<svg width="20" height="20" viewBox="0 0 20 20" fill="none" xmlns="http://www.w3.org/2000/svg">
<path d="M17.6783 8.25529V16.7321C17.6783 17.2862 17.4582 17.8177 17.0664 18.2095C16.6746 18.6013 16.1432 18.8214 15.589 18.8214H5.83904C5.28493 18.8214 4.75351 18.6013 4.36169 18.2095C3.96988 17.8177 3.74976 17.2862 3.74976 16.7321V2.80356C3.74976 2.24945 3.96988 1.71803 4.36169 1.32622C4.75351 0.9344 5.28493 0.714279 5.83904 0.714279H10.1373C10.5066 0.714335 10.8607 0.861034 11.1219 1.12213L17.2705 7.27072C17.5316 7.53187 17.6783 7.88601 17.6783 8.25529Z" stroke="#A3A7AB" stroke-width="1.2" stroke-linejoin="round"/>
<path d="M10.7144 1.47302V6.16119C10.7144 6.49276 10.8461 6.81075 11.0805 7.0452C11.315 7.27966 11.633 7.41137 11.9645 7.41137H16.6527" stroke="#A3A7AB" stroke-width="1.2" stroke-linecap="round" stroke-linejoin="round"/>
<path d="M7.14282 11.2502H13.3937" stroke="#A3A7AB" stroke-width="1.2" stroke-linecap="round" stroke-linejoin="round"/>
<path d="M7.14282 14.375H13.3937" stroke="#A3A7AB" stroke-width="1.2" stroke-linecap="round" stroke-linejoin="round"/>
</svg>
