<svg width="24" height="24" viewBox="0 0 24 24" fill="none" xmlns="http://www.w3.org/2000/svg">
<g clip-path="url(#clip0_1_4797)">
<path d="M15.5 7H8.5C7.673 7 7 6.327 7 5.5C7 4.673 7.673 4 8.5 4H15.5C16.327 4 17 4.673 17 5.5C17 6.327 16.327 7 15.5 7ZM8.5 5C8.224 5 8 5.225 8 5.5C8 5.775 8.224 6 8.5 6H15.5C15.776 6 16 5.775 16 5.5C16 5.225 15.776 5 15.5 5H8.5Z" fill="#6D05F8"/>
<path d="M14.5 5C14.353 5 14.208 4.936 14.109 4.812C13.937 4.596 13.972 4.282 14.187 4.109L16.961 1.89C17.218 1.685 17.149 1.412 17.121 1.333C17.094 1.256 16.978 1 16.649 1H7.35102C7.02202 1 6.90602 1.256 6.87902 1.334C6.85102 1.413 6.78102 1.686 7.03902 1.891L9.81302 4.11C10.028 4.283 10.063 4.597 9.89102 4.813C9.71902 5.028 9.40402 5.063 9.18802 4.891L6.41402 2.672C5.90902 2.268 5.72102 1.613 5.93502 1.003C6.14902 0.394 6.70502 0 7.35102 0H16.65C17.296 0 17.852 0.394 18.066 1.003C18.28 1.613 18.092 2.268 17.587 2.672L14.813 4.891C14.72 4.964 14.61 5 14.5 5Z" fill="#6D05F8"/>
<path d="M12.5 18.5H10C9.724 18.5 9.5 18.276 9.5 18C9.5 17.724 9.724 17.5 10 17.5H12.5C13.051 17.5 13.5 17.052 13.5 16.5C13.5 15.948 13.051 15.5 12.5 15.5H11.5C10.397 15.5 9.5 14.603 9.5 13.5C9.5 12.397 10.397 11.5 11.5 11.5H14C14.276 11.5 14.5 11.724 14.5 12C14.5 12.276 14.276 12.5 14 12.5H11.5C10.949 12.5 10.5 12.948 10.5 13.5C10.5 14.052 10.949 14.5 11.5 14.5H12.5C13.603 14.5 14.5 15.397 14.5 16.5C14.5 17.603 13.603 18.5 12.5 18.5Z" fill="#6D05F8"/>
<path d="M12 20C11.724 20 11.5 19.776 11.5 19.5V18C11.5 17.724 11.724 17.5 12 17.5C12.276 17.5 12.5 17.724 12.5 18V19.5C12.5 19.776 12.276 20 12 20Z" fill="#6D05F8"/>
<path d="M12 12.5C11.724 12.5 11.5 12.276 11.5 12V10.5C11.5 10.224 11.724 10 12 10C12.276 10 12.5 10.224 12.5 10.5V12C12.5 12.276 12.276 12.5 12 12.5Z" fill="#6D05F8"/>
<path d="M15.5 24H8.5C4.701 24 3 20.735 3 17.5C3 12.857 5.451 8.05 8.827 6.068C8.904 6.023 8.991 6 9.08 6H14.92C15.009 6 15.096 6.023 15.173 6.068C18.549 8.05 21 12.857 21 17.5C21 20.735 19.299 24 15.5 24ZM9.218 7C6.188 8.854 4 13.243 4 17.5C4 20.037 5.179 23 8.5 23H15.5C18.821 23 20 20.037 20 17.5C20 13.243 17.812 8.854 14.782 7H9.218Z" fill="#6D05F8"/>
</g>
<defs>
<clipPath id="clip0_1_4797">
<rect width="24" height="24" fill="white"/>
</clipPath>
</defs>
</svg>
