<svg width="20" height="20" viewBox="0 0 20 20" fill="none" xmlns="http://www.w3.org/2000/svg">
<g clip-path="url(#clip0_576_1923)">
<mask id="mask0_576_1923" style="mask-type:luminance" maskUnits="userSpaceOnUse" x="0" y="0" width="20" height="20">
<path d="M20 0H0V20H20V0Z" fill="white"/>
</mask>
<g mask="url(#mask0_576_1923)">
<path d="M10 0.625C8.14581 0.625 6.33325 1.17483 4.79153 2.20497C3.24982 3.23511 2.04821 4.69929 1.33863 6.41234C0.629062 8.1254 0.443406 10.0104 0.805142 11.829C1.16688 13.6475 2.05976 15.318 3.37088 16.6291C4.682 17.9402 6.35246 18.8331 8.17103 19.1949C9.98961 19.5566 11.8746 19.3709 13.5877 18.6614C15.3007 17.9518 16.7649 16.7502 17.795 15.2085C18.8252 13.6668 19.375 11.8542 19.375 10C19.375 7.5136 18.3873 5.12903 16.6291 3.37087C14.871 1.61272 12.4864 0.625 10 0.625ZM10 18.125C8.39303 18.125 6.82215 17.6485 5.486 16.7557C4.14985 15.8629 3.10845 14.594 2.49348 13.1093C1.87852 11.6247 1.71762 9.99099 2.03112 8.41489C2.34463 6.8388 3.11846 5.39106 4.25476 4.25476C5.39106 3.11846 6.8388 2.34462 8.4149 2.03112C9.99099 1.71761 11.6247 1.87852 13.1093 2.49348C14.594 3.10844 15.8629 4.14984 16.7557 5.48599C17.6485 6.82214 18.125 8.39303 18.125 10C18.125 12.1549 17.269 14.2215 15.7453 15.7452C14.2215 17.269 12.1549 18.125 10 18.125Z" fill="#FEFEFE"/>
<path d="M8.98811 4.42485C8.87429 4.37698 8.74884 4.36391 8.6276 4.38727C8.50635 4.41062 8.39475 4.46937 8.30686 4.5561L5.80686 7.0561C5.68917 7.17378 5.62305 7.33341 5.62305 7.49985C5.62305 7.66628 5.68917 7.8259 5.80686 7.94359C5.92455 8.06127 6.08417 8.1274 6.25061 8.1274C6.41704 8.1274 6.57667 8.06127 6.69436 7.94359L8.12561 6.50609V14.9998C8.12561 15.1656 8.19145 15.3245 8.30866 15.4417C8.42587 15.5589 8.58485 15.6248 8.75061 15.6248C8.91637 15.6248 9.07534 15.5589 9.19255 15.4417C9.30976 15.3245 9.37561 15.1656 9.37561 14.9998V4.99985C9.37499 4.87645 9.33786 4.75601 9.26891 4.65368C9.19995 4.55136 9.10224 4.47173 8.98811 4.42485Z" fill="#FEFEFE"/>
<path d="M13.3063 12.0563L11.875 13.4938V5C11.875 4.83424 11.8092 4.67527 11.6919 4.55806C11.5747 4.44085 11.4158 4.375 11.25 4.375C11.0842 4.375 10.9253 4.44085 10.8081 4.55806C10.6908 4.67527 10.625 4.83424 10.625 5V15C10.6256 15.1234 10.6627 15.2438 10.7317 15.3462C10.8007 15.4485 10.8984 15.5281 11.0125 15.575C11.0867 15.61 11.168 15.6271 11.25 15.625C11.3323 15.6255 11.4138 15.6097 11.4899 15.5786C11.5661 15.5475 11.6353 15.5017 11.6937 15.4438L14.1938 12.9438C14.252 12.8855 14.2983 12.8163 14.3298 12.7402C14.3613 12.664 14.3776 12.5824 14.3776 12.5C14.3776 12.4176 14.3613 12.336 14.3298 12.2598C14.2983 12.1837 14.252 12.1145 14.1938 12.0563C14.1355 11.998 14.0663 11.9518 13.9902 11.9202C13.914 11.8887 13.8324 11.8724 13.75 11.8724C13.6676 11.8724 13.586 11.8887 13.5098 11.9202C13.4337 11.9518 13.3645 11.998 13.3063 12.0563Z" fill="#FEFEFE"/>
</g>
</g>
<defs>
<clipPath id="clip0_576_1923">
<rect width="20" height="20" fill="white"/>
</clipPath>
</defs>
</svg>
